<?xml version="1.0" encoding="us-ascii" standalone="no"?><svg xmlns="http://www.w3.org/2000/svg" xmlns:xlink="http://www.w3.org/1999/xlink" contentStyleType="text/css" height="784px" preserveAspectRatio="none" style="width:2010px;height:784px;background:#FFFFFF;" version="1.1" viewBox="0 0 2010 784" width="2010px" zoomAndPan="magnify"><defs/><g><!--cluster storage--><g id="cluster_storage"><path d="M748.5,159 L810.5,159 A3.75,3.75 0 0 1 813,161.5 L820,181.2969 L2000.5,181.2969 A2.5,2.5 0 0 1 2003,183.7969 L2003,774.5 A2.5,2.5 0 0 1 2000.5,777 L748.5,777 A2.5,2.5 0 0 1 746,774.5 L746,161.5 A2.5,2.5 0 0 1 748.5,159 " fill="#FFFFFF" style="stroke:#000000;stroke-width:1.0;"/><line style="stroke:#000000;stroke-width:1.0;" x1="746" x2="820" y1="181.2969" y2="181.2969"/><text fill="#000000" font-family="Verdana" font-size="14" font-weight="bold" lengthAdjust="spacing" textLength="61" x="750" y="173.9951">storage</text></g><!--cluster json--><g id="cluster_json"><path d="M1144.5,303 L1178.5,303 A3.75,3.75 0 0 1 1181,305.5 L1188,325.2969 L1478.5,325.2969 A2.5,2.5 0 0 1 1481,327.7969 L1481,750.5 A2.5,2.5 0 0 1 1478.5,753 L1144.5,753 A2.5,2.5 0 0 1 1142,750.5 L1142,305.5 A2.5,2.5 0 0 1 1144.5,303 " fill="#FFFFFF" style="stroke:#000000;stroke-width:1.0;"/><line style="stroke:#000000;stroke-width:1.0;" x1="1142" x2="1188" y1="325.2969" y2="325.2969"/><text fill="#000000" font-family="Verdana" font-size="14" font-weight="bold" lengthAdjust="spacing" textLength="33" x="1146" y="317.9951">json</text></g><!--cluster sqlite--><g id="cluster_sqlite"><path d="M1507.5,303 L1553.5,303 A3.75,3.75 0 0 1 1556,305.5 L1563,325.2969 L1976.5,325.2969 A2.5,2.5 0 0 1 1979,327.7969 L1979,639.5 A2.5,2.5 0 0 1 1976.5,642 L1507.5,642 A2.5,2.5 0 0 1 1505,639.5 L1505,305.5 A2.5,2.5 0 0 1 1507.5,303 " fill="#FFFFFF" style="stroke:#000000;stroke-width:1.0;"/><line style="stroke:#000000;stroke-width:1.0;" x1="1505" x2="1563" y1="325.2969" y2="325.2969"/><text fill="#000000" font-family="Verdana" font-size="14" font-weight="bold" lengthAdjust="spacing" textLength="45" x="1509" y="317.9951">sqlite</text></g><!--cluster web--><g id="cluster_web"><path d="M205.5,11 L239.5,11 A3.75,3.75 0 0 1 242,13.5 L249,33.2969 L629.5,33.2969 A2.5,2.5 0 0 1 632,35.7969 L632,251.5 A2.5,2.5 0 0 1 629.5,254 L205.5,254 A2.5,2.5 0 0 1 203,251.5 L203,13.5 A2.5,2.5 0 0 1 205.5,11 " fill="#FFFFFF" style="stroke:#000000;stroke-width:1.0;"/><line style="stroke:#000000;stroke-width:1.0;" x1="203" x2="249" y1="33.2969" y2="33.2969"/><text fill="#000000" font-family="Verdana" font-size="14" font-weight="bold" lengthAdjust="spacing" textLength="33" x="207" y="25.9951">web</text></g><!--cluster service--><g id="cluster_service"><path d="M335.5,303 L393.5,303 A3.75,3.75 0 0 1 396,305.5 L403,325.2969 L719.5,325.2969 A2.5,2.5 0 0 1 722,327.7969 L722,522.5 A2.5,2.5 0 0 1 719.5,525 L335.5,525 A2.5,2.5 0 0 1 333,522.5 L333,305.5 A2.5,2.5 0 0 1 335.5,303 " fill="#FFFFFF" style="stroke:#000000;stroke-width:1.0;"/><line style="stroke:#000000;stroke-width:1.0;" x1="333" x2="403" y1="325.2969" y2="325.2969"/><text fill="#000000" font-family="Verdana" font-size="14" font-weight="bold" lengthAdjust="spacing" textLength="57" x="337" y="317.9951">service</text></g><!--class TeaStorage--><g id="elem_TeaStorage"><rect codeLine="6" fill="#FFFFFF" height="56.2656" id="TeaStorage" rx="2.5" ry="2.5" style="stroke:#000000;stroke-width:1.0;" width="111" x="1005.5" y="459"/><ellipse cx="1018.5" cy="479.1328" fill="#FFFFFF" rx="9" ry="9" style="stroke:#000000;stroke-width:1.0;"/><path d="M1015,474.2266 L1015,475.6172 L1017.875,475.6172 L1017.875,482.7422 L1015,482.7422 L1015,484.1328 L1022.2188,484.1328 L1022.2188,482.7422 L1019.3438,482.7422 L1019.3438,475.6172 L1022.2188,475.6172 L1022.2188,474.2266 L1015,474.2266 Z " fill="#000000"/><text fill="#000000" font-family="Verdana" font-size="12" font-style="italic" lengthAdjust="spacing" textLength="67" x="1038.5" y="475.1387">&#171;interface&#187;</text><text fill="#000000" font-family="Verdana" font-size="14" font-style="italic" lengthAdjust="spacing" textLength="83" x="1030.5" y="490.9639">TeaStorage</text><line style="stroke:#000000;stroke-width:1.0;" x1="1006.5" x2="1115.5" y1="499.2656" y2="499.2656"/><line style="stroke:#000000;stroke-width:1.0;" x1="1006.5" x2="1115.5" y1="507.2656" y2="507.2656"/></g><!--class TeaCreatorStorage--><g id="elem_TeaCreatorStorage"><rect codeLine="7" fill="#FFFFFF" height="56.2656" id="TeaCreatorStorage" rx="2.5" ry="2.5" style="stroke:#000000;stroke-width:1.0;" width="165" x="762.5" y="576"/><ellipse cx="775.5" cy="596.1328" fill="#FFFFFF" rx="9" ry="9" style="stroke:#000000;stroke-width:1.0;"/><path d="M772,591.2266 L772,592.6172 L774.875,592.6172 L774.875,599.7422 L772,599.7422 L772,601.1328 L779.2188,601.1328 L779.2188,599.7422 L776.3438,599.7422 L776.3438,592.6172 L779.2188,592.6172 L779.2188,591.2266 L772,591.2266 Z " fill="#000000"/><text fill="#000000" font-family="Verdana" font-size="12" font-style="italic" lengthAdjust="spacing" textLength="67" x="822.5" y="592.1387">&#171;interface&#187;</text><text fill="#000000" font-family="Verdana" font-size="14" font-style="italic" lengthAdjust="spacing" textLength="137" x="787.5" y="607.9639">TeaCreatorStorage</text><line style="stroke:#000000;stroke-width:1.0;" x1="763.5" x2="926.5" y1="616.2656" y2="616.2656"/><line style="stroke:#000000;stroke-width:1.0;" x1="763.5" x2="926.5" y1="624.2656" y2="624.2656"/></g><!--class TeaReaderStorage--><g id="elem_TeaReaderStorage"><rect codeLine="8" fill="#FFFFFF" height="56.2656" id="TeaReaderStorage" rx="2.5" ry="2.5" style="stroke:#000000;stroke-width:1.0;" width="163" x="962.5" y="576"/><ellipse cx="975.5" cy="596.1328" fill="#FFFFFF" rx="9" ry="9" style="stroke:#000000;stroke-width:1.0;"/><path d="M972,591.2266 L972,592.6172 L974.875,592.6172 L974.875,599.7422 L972,599.7422 L972,601.1328 L979.2188,601.1328 L979.2188,599.7422 L976.3438,599.7422 L976.3438,592.6172 L979.2188,592.6172 L979.2188,591.2266 L972,591.2266 Z " fill="#000000"/><text fill="#000000" font-family="Verdana" font-size="12" font-style="italic" lengthAdjust="spacing" textLength="67" x="1021.5" y="592.1387">&#171;interface&#187;</text><text fill="#000000" font-family="Verdana" font-size="14" font-style="italic" lengthAdjust="spacing" textLength="135" x="987.5" y="607.9639">TeaReaderStorage</text><line style="stroke:#000000;stroke-width:1.0;" x1="963.5" x2="1124.5" y1="616.2656" y2="616.2656"/><line style="stroke:#000000;stroke-width:1.0;" x1="963.5" x2="1124.5" y1="624.2656" y2="624.2656"/></g><!--class TeaStorageFactory--><g id="elem_TeaStorageFactory"><rect codeLine="10" fill="#FFFFFF" height="44" id="TeaStorageFactory" rx="2.5" ry="2.5" style="stroke:#000000;stroke-width:1.0;" width="164" x="1146" y="194"/><ellipse cx="1159" cy="208" fill="#FFFFFF" rx="9" ry="9" style="stroke:#000000;stroke-width:1.0;"/><path d="M1162.4063,209.9688 C1161.6875,210.6406 1160.3906,211.8125 1158.6406,211.8125 C1156.4219,211.8125 1155.4531,209.875 1155.4531,207.9219 C1155.4531,205.5313 1156.9375,204.2656 1158.5781,204.2656 C1160.5938,204.2656 1160.8125,205.7813 1160.9844,206.875 L1162.4063,206.6875 C1162.3125,206.1094 1162.2344,205.5313 1162.2344,204.5625 C1162.2344,203.8906 1162.2813,203.3438 1162.3125,202.9219 L1160.9063,202.9219 L1160.7969,203.875 C1160.2031,203.3438 1159.5625,202.7969 1158.3438,202.7969 C1156.2969,202.7969 1153.8906,204.625 1153.8906,207.9375 C1153.8906,210.875 1155.6563,213.2656 1158.6563,213.2656 C1161.0938,213.2656 1162.7969,211.6406 1163.3906,211.0625 L1162.4063,209.9688 Z " fill="#000000"/><text fill="#000000" font-family="Verdana" font-size="14" lengthAdjust="spacing" textLength="136" x="1171" y="212.8467">TeaStorageFactory</text><line style="stroke:#000000;stroke-width:1.0;" x1="1147" x2="1309" y1="222" y2="222"/><line style="stroke:#000000;stroke-width:1.0;" x1="1147" x2="1309" y1="230" y2="230"/></g><!--class AbstractTeaJsonStorage--><g id="elem_AbstractTeaJsonStorage"><rect codeLine="14" fill="#FFFFFF" height="44" id="AbstractTeaJsonStorage" rx="2.5" ry="2.5" style="stroke:#000000;stroke-width:1.0;" width="199" x="1212.5" y="693"/><ellipse cx="1225.5" cy="707" fill="#FFFFFF" rx="9" ry="9" style="stroke:#000000;stroke-width:1.0;"/><path d="M1228.9063,708.9688 C1228.1875,709.6406 1226.8906,710.8125 1225.1406,710.8125 C1222.9219,710.8125 1221.9531,708.875 1221.9531,706.9219 C1221.9531,704.5313 1223.4375,703.2656 1225.0781,703.2656 C1227.0938,703.2656 1227.3125,704.7813 1227.4844,705.875 L1228.9063,705.6875 C1228.8125,705.1094 1228.7344,704.5313 1228.7344,703.5625 C1228.7344,702.8906 1228.7813,702.3438 1228.8125,701.9219 L1227.4063,701.9219 L1227.2969,702.875 C1226.7031,702.3438 1226.0625,701.7969 1224.8438,701.7969 C1222.7969,701.7969 1220.3906,703.625 1220.3906,706.9375 C1220.3906,709.875 1222.1563,712.2656 1225.1563,712.2656 C1227.5938,712.2656 1229.2969,710.6406 1229.8906,710.0625 L1228.9063,708.9688 Z " fill="#000000"/><text fill="#000000" font-family="Verdana" font-size="14" lengthAdjust="spacing" textLength="171" x="1237.5" y="711.8467">AbstractTeaJsonStorage</text><line style="stroke:#000000;stroke-width:1.0;" x1="1213.5" x2="1410.5" y1="721" y2="721"/><line style="stroke:#000000;stroke-width:1.0;" x1="1213.5" x2="1410.5" y1="729" y2="729"/></g><!--class TeaReaderJsonStorage--><g id="elem_TeaReaderJsonStorage"><rect codeLine="15" fill="#FFFFFF" height="44" id="TeaReaderJsonStorage" rx="2.5" ry="2.5" style="stroke:#000000;stroke-width:1.0;" width="192" x="1161" y="582"/><ellipse cx="1174" cy="596" fill="#FFFFFF" rx="9" ry="9" style="stroke:#000000;stroke-width:1.0;"/><path d="M1177.4063,597.9688 C1176.6875,598.6406 1175.3906,599.8125 1173.6406,599.8125 C1171.4219,599.8125 1170.4531,597.875 1170.4531,595.9219 C1170.4531,593.5313 1171.9375,592.2656 1173.5781,592.2656 C1175.5938,592.2656 1175.8125,593.7813 1175.9844,594.875 L1177.4063,594.6875 C1177.3125,594.1094 1177.2344,593.5313 1177.2344,592.5625 C1177.2344,591.8906 1177.2813,591.3438 1177.3125,590.9219 L1175.9063,590.9219 L1175.7969,591.875 C1175.2031,591.3438 1174.5625,590.7969 1173.3438,590.7969 C1171.2969,590.7969 1168.8906,592.625 1168.8906,595.9375 C1168.8906,598.875 1170.6563,601.2656 1173.6563,601.2656 C1176.0938,601.2656 1177.7969,599.6406 1178.3906,599.0625 L1177.4063,597.9688 Z " fill="#000000"/><text fill="#000000" font-family="Verdana" font-size="14" lengthAdjust="spacing" textLength="164" x="1186" y="600.8467">TeaReaderJsonStorage</text><line style="stroke:#000000;stroke-width:1.0;" x1="1162" x2="1352" y1="610" y2="610"/><line style="stroke:#000000;stroke-width:1.0;" x1="1162" x2="1352" y1="618" y2="618"/></g><!--class TeaCreatorJsonStorage--><g id="elem_TeaCreatorJsonStorage"><rect codeLine="16" fill="#FFFFFF" height="44" id="TeaCreatorJsonStorage" rx="2.5" ry="2.5" style="stroke:#000000;stroke-width:1.0;" width="194" x="1271" y="465"/><ellipse cx="1284" cy="479" fill="#FFFFFF" rx="9" ry="9" style="stroke:#000000;stroke-width:1.0;"/><path d="M1287.4063,480.9688 C1286.6875,481.6406 1285.3906,482.8125 1283.6406,482.8125 C1281.4219,482.8125 1280.4531,480.875 1280.4531,478.9219 C1280.4531,476.5313 1281.9375,475.2656 1283.5781,475.2656 C1285.5938,475.2656 1285.8125,476.7813 1285.9844,477.875 L1287.4063,477.6875 C1287.3125,477.1094 1287.2344,476.5313 1287.2344,475.5625 C1287.2344,474.8906 1287.2813,474.3438 1287.3125,473.9219 L1285.9063,473.9219 L1285.7969,474.875 C1285.2031,474.3438 1284.5625,473.7969 1283.3438,473.7969 C1281.2969,473.7969 1278.8906,475.625 1278.8906,478.9375 C1278.8906,481.875 1280.6563,484.2656 1283.6563,484.2656 C1286.0938,484.2656 1287.7969,482.6406 1288.3906,482.0625 L1287.4063,480.9688 Z " fill="#000000"/><text fill="#000000" font-family="Verdana" font-size="14" lengthAdjust="spacing" textLength="166" x="1296" y="483.8467">TeaCreatorJsonStorage</text><line style="stroke:#000000;stroke-width:1.0;" x1="1272" x2="1464" y1="493" y2="493"/><line style="stroke:#000000;stroke-width:1.0;" x1="1272" x2="1464" y1="501" y2="501"/></g><!--class TeaJsonStorage--><g id="elem_TeaJsonStorage"><rect codeLine="17" fill="#FFFFFF" height="44" id="TeaJsonStorage" rx="2.5" ry="2.5" style="stroke:#000000;stroke-width:1.0;" width="140" x="1158" y="338"/><ellipse cx="1171" cy="352" fill="#FFFFFF" rx="9" ry="9" style="stroke:#000000;stroke-width:1.0;"/><path d="M1174.4063,353.9688 C1173.6875,354.6406 1172.3906,355.8125 1170.6406,355.8125 C1168.4219,355.8125 1167.4531,353.875 1167.4531,351.9219 C1167.4531,349.5313 1168.9375,348.2656 1170.5781,348.2656 C1172.5938,348.2656 1172.8125,349.7813 1172.9844,350.875 L1174.4063,350.6875 C1174.3125,350.1094 1174.2344,349.5313 1174.2344,348.5625 C1174.2344,347.8906 1174.2813,347.3438 1174.3125,346.9219 L1172.9063,346.9219 L1172.7969,347.875 C1172.2031,347.3438 1171.5625,346.7969 1170.3438,346.7969 C1168.2969,346.7969 1165.8906,348.625 1165.8906,351.9375 C1165.8906,354.875 1167.6563,357.2656 1170.6563,357.2656 C1173.0938,357.2656 1174.7969,355.6406 1175.3906,355.0625 L1174.4063,353.9688 Z " fill="#000000"/><text fill="#000000" font-family="Verdana" font-size="14" lengthAdjust="spacing" textLength="112" x="1183" y="356.8467">TeaJsonStorage</text><line style="stroke:#000000;stroke-width:1.0;" x1="1159" x2="1297" y1="366" y2="366"/><line style="stroke:#000000;stroke-width:1.0;" x1="1159" x2="1297" y1="374" y2="374"/></g><!--class AbstractTeaSqliteStorage--><g id="elem_AbstractTeaSqliteStorage"><rect codeLine="21" fill="#FFFFFF" height="44" id="AbstractTeaSqliteStorage" rx="2.5" ry="2.5" style="stroke:#000000;stroke-width:1.0;" width="210" x="1639" y="582"/><ellipse cx="1652" cy="596" fill="#FFFFFF" rx="9" ry="9" style="stroke:#000000;stroke-width:1.0;"/><path d="M1655.4063,597.9688 C1654.6875,598.6406 1653.3906,599.8125 1651.6406,599.8125 C1649.4219,599.8125 1648.4531,597.875 1648.4531,595.9219 C1648.4531,593.5313 1649.9375,592.2656 1651.5781,592.2656 C1653.5938,592.2656 1653.8125,593.7813 1653.9844,594.875 L1655.4063,594.6875 C1655.3125,594.1094 1655.2344,593.5313 1655.2344,592.5625 C1655.2344,591.8906 1655.2813,591.3438 1655.3125,590.9219 L1653.9063,590.9219 L1653.7969,591.875 C1653.2031,591.3438 1652.5625,590.7969 1651.3438,590.7969 C1649.2969,590.7969 1646.8906,592.625 1646.8906,595.9375 C1646.8906,598.875 1648.6563,601.2656 1651.6563,601.2656 C1654.0938,601.2656 1655.7969,599.6406 1656.3906,599.0625 L1655.4063,597.9688 Z " fill="#000000"/><text fill="#000000" font-family="Verdana" font-size="14" lengthAdjust="spacing" textLength="182" x="1664" y="600.8467">AbstractTeaSqliteStorage</text><line style="stroke:#000000;stroke-width:1.0;" x1="1640" x2="1848" y1="610" y2="610"/><line style="stroke:#000000;stroke-width:1.0;" x1="1640" x2="1848" y1="618" y2="618"/></g><!--class TeaCreatorSqliteStorage--><g id="elem_TeaCreatorSqliteStorage"><rect codeLine="22" fill="#FFFFFF" height="44" id="TeaCreatorSqliteStorage" rx="2.5" ry="2.5" style="stroke:#000000;stroke-width:1.0;" width="205" x="1520.5" y="465"/><ellipse cx="1533.5" cy="479" fill="#FFFFFF" rx="9" ry="9" style="stroke:#000000;stroke-width:1.0;"/><path d="M1536.9063,480.9688 C1536.1875,481.6406 1534.8906,482.8125 1533.1406,482.8125 C1530.9219,482.8125 1529.9531,480.875 1529.9531,478.9219 C1529.9531,476.5313 1531.4375,475.2656 1533.0781,475.2656 C1535.0938,475.2656 1535.3125,476.7813 1535.4844,477.875 L1536.9063,477.6875 C1536.8125,477.1094 1536.7344,476.5313 1536.7344,475.5625 C1536.7344,474.8906 1536.7813,474.3438 1536.8125,473.9219 L1535.4063,473.9219 L1535.2969,474.875 C1534.7031,474.3438 1534.0625,473.7969 1532.8438,473.7969 C1530.7969,473.7969 1528.3906,475.625 1528.3906,478.9375 C1528.3906,481.875 1530.1563,484.2656 1533.1563,484.2656 C1535.5938,484.2656 1537.2969,482.6406 1537.8906,482.0625 L1536.9063,480.9688 Z " fill="#000000"/><text fill="#000000" font-family="Verdana" font-size="14" lengthAdjust="spacing" textLength="177" x="1545.5" y="483.8467">TeaCreatorSqliteStorage</text><line style="stroke:#000000;stroke-width:1.0;" x1="1521.5" x2="1724.5" y1="493" y2="493"/><line style="stroke:#000000;stroke-width:1.0;" x1="1521.5" x2="1724.5" y1="501" y2="501"/></g><!--class TeaReaderSqliteStorage--><g id="elem_TeaReaderSqliteStorage"><rect codeLine="23" fill="#FFFFFF" height="44" id="TeaReaderSqliteStorage" rx="2.5" ry="2.5" style="stroke:#000000;stroke-width:1.0;" width="203" x="1760.5" y="465"/><ellipse cx="1773.5" cy="479" fill="#FFFFFF" rx="9" ry="9" style="stroke:#000000;stroke-width:1.0;"/><path d="M1776.9063,480.9688 C1776.1875,481.6406 1774.8906,482.8125 1773.1406,482.8125 C1770.9219,482.8125 1769.9531,480.875 1769.9531,478.9219 C1769.9531,476.5313 1771.4375,475.2656 1773.0781,475.2656 C1775.0938,475.2656 1775.3125,476.7813 1775.4844,477.875 L1776.9063,477.6875 C1776.8125,477.1094 1776.7344,476.5313 1776.7344,475.5625 C1776.7344,474.8906 1776.7813,474.3438 1776.8125,473.9219 L1775.4063,473.9219 L1775.2969,474.875 C1774.7031,474.3438 1774.0625,473.7969 1772.8438,473.7969 C1770.7969,473.7969 1768.3906,475.625 1768.3906,478.9375 C1768.3906,481.875 1770.1563,484.2656 1773.1563,484.2656 C1775.5938,484.2656 1777.2969,482.6406 1777.8906,482.0625 L1776.9063,480.9688 Z " fill="#000000"/><text fill="#000000" font-family="Verdana" font-size="14" lengthAdjust="spacing" textLength="175" x="1785.5" y="483.8467">TeaReaderSqliteStorage</text><line style="stroke:#000000;stroke-width:1.0;" x1="1761.5" x2="1962.5" y1="493" y2="493"/><line style="stroke:#000000;stroke-width:1.0;" x1="1761.5" x2="1962.5" y1="501" y2="501"/></g><!--class TeaSqliteStorage--><g id="elem_TeaSqliteStorage"><rect codeLine="24" fill="#FFFFFF" height="44" id="TeaSqliteStorage" rx="2.5" ry="2.5" style="stroke:#000000;stroke-width:1.0;" width="151" x="1534.5" y="338"/><ellipse cx="1547.5" cy="352" fill="#FFFFFF" rx="9" ry="9" style="stroke:#000000;stroke-width:1.0;"/><path d="M1550.9063,353.9688 C1550.1875,354.6406 1548.8906,355.8125 1547.1406,355.8125 C1544.9219,355.8125 1543.9531,353.875 1543.9531,351.9219 C1543.9531,349.5313 1545.4375,348.2656 1547.0781,348.2656 C1549.0938,348.2656 1549.3125,349.7813 1549.4844,350.875 L1550.9063,350.6875 C1550.8125,350.1094 1550.7344,349.5313 1550.7344,348.5625 C1550.7344,347.8906 1550.7813,347.3438 1550.8125,346.9219 L1549.4063,346.9219 L1549.2969,347.875 C1548.7031,347.3438 1548.0625,346.7969 1546.8438,346.7969 C1544.7969,346.7969 1542.3906,348.625 1542.3906,351.9375 C1542.3906,354.875 1544.1563,357.2656 1547.1563,357.2656 C1549.5938,357.2656 1551.2969,355.6406 1551.8906,355.0625 L1550.9063,353.9688 Z " fill="#000000"/><text fill="#000000" font-family="Verdana" font-size="14" lengthAdjust="spacing" textLength="123" x="1559.5" y="356.8467">TeaSqliteStorage</text><line style="stroke:#000000;stroke-width:1.0;" x1="1535.5" x2="1684.5" y1="366" y2="366"/><line style="stroke:#000000;stroke-width:1.0;" x1="1535.5" x2="1684.5" y1="374" y2="374"/></g><!--class MainPage--><g id="elem_MainPage"><rect codeLine="29" fill="#FFFFFF" height="44" id="MainPage" rx="2.5" ry="2.5" style="stroke:#000000;stroke-width:1.0;" width="97" x="360.5" y="194"/><ellipse cx="373.5" cy="208" fill="#FFFFFF" rx="9" ry="9" style="stroke:#000000;stroke-width:1.0;"/><path d="M376.9063,209.9688 C376.1875,210.6406 374.8906,211.8125 373.1406,211.8125 C370.9219,211.8125 369.9531,209.875 369.9531,207.9219 C369.9531,205.5313 371.4375,204.2656 373.0781,204.2656 C375.0938,204.2656 375.3125,205.7813 375.4844,206.875 L376.9063,206.6875 C376.8125,206.1094 376.7344,205.5313 376.7344,204.5625 C376.7344,203.8906 376.7813,203.3438 376.8125,202.9219 L375.4063,202.9219 L375.2969,203.875 C374.7031,203.3438 374.0625,202.7969 372.8438,202.7969 C370.7969,202.7969 368.3906,204.625 368.3906,207.9375 C368.3906,210.875 370.1563,213.2656 373.1563,213.2656 C375.5938,213.2656 377.2969,211.6406 377.8906,211.0625 L376.9063,209.9688 Z " fill="#000000"/><text fill="#000000" font-family="Verdana" font-size="14" lengthAdjust="spacing" textLength="69" x="385.5" y="212.8467">MainPage</text><line style="stroke:#000000;stroke-width:1.0;" x1="361.5" x2="456.5" y1="222" y2="222"/><line style="stroke:#000000;stroke-width:1.0;" x1="361.5" x2="456.5" y1="230" y2="230"/></g><!--class AssetHandler--><g id="elem_AssetHandler"><rect codeLine="30" fill="#FFFFFF" height="44" id="AssetHandler" rx="2.5" ry="2.5" style="stroke:#000000;stroke-width:1.0;" width="123" x="492.5" y="194"/><ellipse cx="505.5" cy="208" fill="#FFFFFF" rx="9" ry="9" style="stroke:#000000;stroke-width:1.0;"/><path d="M508.9063,209.9688 C508.1875,210.6406 506.8906,211.8125 505.1406,211.8125 C502.9219,211.8125 501.9531,209.875 501.9531,207.9219 C501.9531,205.5313 503.4375,204.2656 505.0781,204.2656 C507.0938,204.2656 507.3125,205.7813 507.4844,206.875 L508.9063,206.6875 C508.8125,206.1094 508.7344,205.5313 508.7344,204.5625 C508.7344,203.8906 508.7813,203.3438 508.8125,202.9219 L507.4063,202.9219 L507.2969,203.875 C506.7031,203.3438 506.0625,202.7969 504.8438,202.7969 C502.7969,202.7969 500.3906,204.625 500.3906,207.9375 C500.3906,210.875 502.1563,213.2656 505.1563,213.2656 C507.5938,213.2656 509.2969,211.6406 509.8906,211.0625 L508.9063,209.9688 Z " fill="#000000"/><text fill="#000000" font-family="Verdana" font-size="14" lengthAdjust="spacing" textLength="95" x="517.5" y="212.8467">AssetHandler</text><line style="stroke:#000000;stroke-width:1.0;" x1="493.5" x2="614.5" y1="222" y2="222"/><line style="stroke:#000000;stroke-width:1.0;" x1="493.5" x2="614.5" y1="230" y2="230"/></g><!--class TeaWebServer--><g id="elem_TeaWebServer"><rect codeLine="31" fill="#FFFFFF" height="44" id="TeaWebServer" rx="2.5" ry="2.5" style="stroke:#000000;stroke-width:1.0;" width="134" x="427" y="46"/><ellipse cx="440" cy="60" fill="#FFFFFF" rx="9" ry="9" style="stroke:#000000;stroke-width:1.0;"/><path d="M443.4063,61.9688 C442.6875,62.6406 441.3906,63.8125 439.6406,63.8125 C437.4219,63.8125 436.4531,61.875 436.4531,59.9219 C436.4531,57.5313 437.9375,56.2656 439.5781,56.2656 C441.5938,56.2656 441.8125,57.7813 441.9844,58.875 L443.4063,58.6875 C443.3125,58.1094 443.2344,57.5313 443.2344,56.5625 C443.2344,55.8906 443.2813,55.3438 443.3125,54.9219 L441.9063,54.9219 L441.7969,55.875 C441.2031,55.3438 440.5625,54.7969 439.3438,54.7969 C437.2969,54.7969 434.8906,56.625 434.8906,59.9375 C434.8906,62.875 436.6563,65.2656 439.6563,65.2656 C442.0938,65.2656 443.7969,63.6406 444.3906,63.0625 L443.4063,61.9688 Z " fill="#000000"/><text fill="#000000" font-family="Verdana" font-size="14" lengthAdjust="spacing" textLength="106" x="452" y="64.8467">TeaWebServer</text><line style="stroke:#000000;stroke-width:1.0;" x1="428" x2="560" y1="74" y2="74"/><line style="stroke:#000000;stroke-width:1.0;" x1="428" x2="560" y1="82" y2="82"/></g><!--class WebServer--><g id="elem_WebServer"><rect codeLine="32" fill="#FFFFFF" height="44" id="WebServer" rx="2.5" ry="2.5" style="stroke:#000000;stroke-width:1.0;" width="107" x="218.5" y="194"/><ellipse cx="231.5" cy="208" fill="#FFFFFF" rx="9" ry="9" style="stroke:#000000;stroke-width:1.0;"/><path d="M234.9063,209.9688 C234.1875,210.6406 232.8906,211.8125 231.1406,211.8125 C228.9219,211.8125 227.9531,209.875 227.9531,207.9219 C227.9531,205.5313 229.4375,204.2656 231.0781,204.2656 C233.0938,204.2656 233.3125,205.7813 233.4844,206.875 L234.9063,206.6875 C234.8125,206.1094 234.7344,205.5313 234.7344,204.5625 C234.7344,203.8906 234.7813,203.3438 234.8125,202.9219 L233.4063,202.9219 L233.2969,203.875 C232.7031,203.3438 232.0625,202.7969 230.8438,202.7969 C228.7969,202.7969 226.3906,204.625 226.3906,207.9375 C226.3906,210.875 228.1563,213.2656 231.1563,213.2656 C233.5938,213.2656 235.2969,211.6406 235.8906,211.0625 L234.9063,209.9688 Z " fill="#000000"/><text fill="#000000" font-family="Verdana" font-size="14" lengthAdjust="spacing" textLength="79" x="243.5" y="212.8467">WebServer</text><line style="stroke:#000000;stroke-width:1.0;" x1="219.5" x2="324.5" y1="222" y2="222"/><line style="stroke:#000000;stroke-width:1.0;" x1="219.5" x2="324.5" y1="230" y2="230"/></g><!--class TeaCreatorService--><g id="elem_TeaCreatorService"><rect codeLine="36" fill="#FFFFFF" height="44" id="TeaCreatorService" rx="2.5" ry="2.5" style="stroke:#000000;stroke-width:1.0;" width="162" x="349" y="465"/><ellipse cx="362" cy="479" fill="#FFFFFF" rx="9" ry="9" style="stroke:#000000;stroke-width:1.0;"/><path d="M365.4063,480.9688 C364.6875,481.6406 363.3906,482.8125 361.6406,482.8125 C359.4219,482.8125 358.4531,480.875 358.4531,478.9219 C358.4531,476.5313 359.9375,475.2656 361.5781,475.2656 C363.5938,475.2656 363.8125,476.7813 363.9844,477.875 L365.4063,477.6875 C365.3125,477.1094 365.2344,476.5313 365.2344,475.5625 C365.2344,474.8906 365.2813,474.3438 365.3125,473.9219 L363.9063,473.9219 L363.7969,474.875 C363.2031,474.3438 362.5625,473.7969 361.3438,473.7969 C359.2969,473.7969 356.8906,475.625 356.8906,478.9375 C356.8906,481.875 358.6563,484.2656 361.6563,484.2656 C364.0938,484.2656 365.7969,482.6406 366.3906,482.0625 L365.4063,480.9688 Z " fill="#000000"/><text fill="#000000" font-family="Verdana" font-size="14" lengthAdjust="spacing" textLength="134" x="374" y="483.8467">TeaCreatorService</text><line style="stroke:#000000;stroke-width:1.0;" x1="350" x2="510" y1="493" y2="493"/><line style="stroke:#000000;stroke-width:1.0;" x1="350" x2="510" y1="501" y2="501"/></g><!--class TeaReaderService--><g id="elem_TeaReaderService"><rect codeLine="37" fill="#FFFFFF" height="44" id="TeaReaderService" rx="2.5" ry="2.5" style="stroke:#000000;stroke-width:1.0;" width="160" x="546" y="465"/><ellipse cx="559" cy="479" fill="#FFFFFF" rx="9" ry="9" style="stroke:#000000;stroke-width:1.0;"/><path d="M562.4063,480.9688 C561.6875,481.6406 560.3906,482.8125 558.6406,482.8125 C556.4219,482.8125 555.4531,480.875 555.4531,478.9219 C555.4531,476.5313 556.9375,475.2656 558.5781,475.2656 C560.5938,475.2656 560.8125,476.7813 560.9844,477.875 L562.4063,477.6875 C562.3125,477.1094 562.2344,476.5313 562.2344,475.5625 C562.2344,474.8906 562.2813,474.3438 562.3125,473.9219 L560.9063,473.9219 L560.7969,474.875 C560.2031,474.3438 559.5625,473.7969 558.3438,473.7969 C556.2969,473.7969 553.8906,475.625 553.8906,478.9375 C553.8906,481.875 555.6563,484.2656 558.6563,484.2656 C561.0938,484.2656 562.7969,482.6406 563.3906,482.0625 L562.4063,480.9688 Z " fill="#000000"/><text fill="#000000" font-family="Verdana" font-size="14" lengthAdjust="spacing" textLength="132" x="571" y="483.8467">TeaReaderService</text><line style="stroke:#000000;stroke-width:1.0;" x1="547" x2="705" y1="493" y2="493"/><line style="stroke:#000000;stroke-width:1.0;" x1="547" x2="705" y1="501" y2="501"/></g><!--class TeaService--><g id="elem_TeaService"><rect codeLine="38" fill="#FFFFFF" height="44" id="TeaService" rx="2.5" ry="2.5" style="stroke:#000000;stroke-width:1.0;" width="108" x="572" y="338"/><ellipse cx="585" cy="352" fill="#FFFFFF" rx="9" ry="9" style="stroke:#000000;stroke-width:1.0;"/><path d="M588.4063,353.9688 C587.6875,354.6406 586.3906,355.8125 584.6406,355.8125 C582.4219,355.8125 581.4531,353.875 581.4531,351.9219 C581.4531,349.5313 582.9375,348.2656 584.5781,348.2656 C586.5938,348.2656 586.8125,349.7813 586.9844,350.875 L588.4063,350.6875 C588.3125,350.1094 588.2344,349.5313 588.2344,348.5625 C588.2344,347.8906 588.2813,347.3438 588.3125,346.9219 L586.9063,346.9219 L586.7969,347.875 C586.2031,347.3438 585.5625,346.7969 584.3438,346.7969 C582.2969,346.7969 579.8906,348.625 579.8906,351.9375 C579.8906,354.875 581.6563,357.2656 584.6563,357.2656 C587.0938,357.2656 588.7969,355.6406 589.3906,355.0625 L588.4063,353.9688 Z " fill="#000000"/><text fill="#000000" font-family="Verdana" font-size="14" lengthAdjust="spacing" textLength="80" x="597" y="356.8467">TeaService</text><line style="stroke:#000000;stroke-width:1.0;" x1="573" x2="679" y1="366" y2="366"/><line style="stroke:#000000;stroke-width:1.0;" x1="573" x2="679" y1="374" y2="374"/></g><!--class Main--><g id="elem_Main"><rect codeLine="41" fill="#FFFFFF" height="44" id="Main" rx="2.5" ry="2.5" style="stroke:#000000;stroke-width:1.0;" width="62" x="12" y="46"/><ellipse cx="25" cy="60" fill="#FFFFFF" rx="9" ry="9" style="stroke:#000000;stroke-width:1.0;"/><path d="M28.4063,61.9688 C27.6875,62.6406 26.3906,63.8125 24.6406,63.8125 C22.4219,63.8125 21.4531,61.875 21.4531,59.9219 C21.4531,57.5313 22.9375,56.2656 24.5781,56.2656 C26.5938,56.2656 26.8125,57.7813 26.9844,58.875 L28.4063,58.6875 C28.3125,58.1094 28.2344,57.5313 28.2344,56.5625 C28.2344,55.8906 28.2813,55.3438 28.3125,54.9219 L26.9063,54.9219 L26.7969,55.875 C26.2031,55.3438 25.5625,54.7969 24.3438,54.7969 C22.2969,54.7969 19.8906,56.625 19.8906,59.9375 C19.8906,62.875 21.6563,65.2656 24.6563,65.2656 C27.0938,65.2656 28.7969,63.6406 29.3906,63.0625 L28.4063,61.9688 Z " fill="#000000"/><text fill="#000000" font-family="Verdana" font-size="14" lengthAdjust="spacing" textLength="34" x="37" y="64.8467">Main</text><line style="stroke:#000000;stroke-width:1.0;" x1="13" x2="73" y1="74" y2="74"/><line style="stroke:#000000;stroke-width:1.0;" x1="13" x2="73" y1="82" y2="82"/></g><!--class Tea--><g id="elem_Tea"><rect codeLine="42" fill="#FFFFFF" height="56.2656" id="Tea" rx="2.5" ry="2.5" style="stroke:#000000;stroke-width:1.0;" width="77" x="109.5" y="40"/><ellipse cx="122.5" cy="60.1328" fill="#FFFFFF" rx="9" ry="9" style="stroke:#000000;stroke-width:1.0;"/><path d="M125.9063,62.1016 C125.1875,62.7734 123.8906,63.9453 122.1406,63.9453 C119.9219,63.9453 118.9531,62.0078 118.9531,60.0547 C118.9531,57.6641 120.4375,56.3984 122.0781,56.3984 C124.0938,56.3984 124.3125,57.9141 124.4844,59.0078 L125.9063,58.8203 C125.8125,58.2422 125.7344,57.6641 125.7344,56.6953 C125.7344,56.0234 125.7813,55.4766 125.8125,55.0547 L124.4063,55.0547 L124.2969,56.0078 C123.7031,55.4766 123.0625,54.9297 121.8438,54.9297 C119.7969,54.9297 117.3906,56.7578 117.3906,60.0703 C117.3906,63.0078 119.1563,65.3984 122.1563,65.3984 C124.5938,65.3984 126.2969,63.7734 126.8906,63.1953 L125.9063,62.1016 Z " fill="#000000"/><text fill="#000000" font-family="Verdana" font-size="12" font-style="italic" lengthAdjust="spacing" textLength="53" x="132.5" y="56.1387">&#171;record&#187;</text><text fill="#000000" font-family="Verdana" font-size="14" lengthAdjust="spacing" textLength="27" x="145.5" y="71.9639">Tea</text><line style="stroke:#000000;stroke-width:1.0;" x1="110.5" x2="185.5" y1="80.2656" y2="80.2656"/><line style="stroke:#000000;stroke-width:1.0;" x1="110.5" x2="185.5" y1="88.2656" y2="88.2656"/></g><!--link MainPage to TeaService--><g id="link_MainPage_TeaService"><path codeLine="52" d="M449.3446,244.7849 C460.4846,252.4049 463.32,254.27 475,262 C515.14,288.57 556.7633,315.1861 587.4733,334.6661 " fill="none" id="MainPage-TeaService" style="stroke:#595959;stroke-width:1.0;"/><polygon fill="#595959" points="439.44,238.01,442.134,244.699,449.3446,244.7849,446.6506,238.0959,439.44,238.01" style="stroke:#595959;stroke-width:1.0;"/><polygon fill="#595959" points="592.54,337.88,587.0826,329.6814,588.3178,335.2018,582.7974,336.4369,592.54,337.88" style="stroke:#595959;stroke-width:1.0;"/><text fill="#000000" font-family="Verdana" font-size="13" lengthAdjust="spacing" textLength="8" x="438.5458" y="258.0256">1</text><text fill="#000000" font-family="Verdana" font-size="13" lengthAdjust="spacing" textLength="69" x="592.7675" y="311.8559">teaService</text><text fill="#000000" font-family="Verdana" font-size="13" lengthAdjust="spacing" textLength="8" x="623.2675" y="326.9888">1</text></g><!--link TeaCreatorJsonStorage to AbstractTeaJsonStorage--><g id="link_TeaCreatorJsonStorage_AbstractTeaJsonStorage"><path codeLine="53" d="M1373.33,509.09 C1380.3,540.89 1389.58,602.44 1371,650 C1364.51,666.61 1364.7035,669.3086 1352.5235,680.5386 " fill="none" id="TeaCreatorJsonStorage-to-AbstractTeaJsonStorage" style="stroke:#000082;stroke-width:1.0;"/><polygon fill="none" points="1339.29,692.74,1356.5907,684.9498,1348.4564,676.1275,1339.29,692.74" style="stroke:#000082;stroke-width:1.0;"/></g><!--link TeaCreatorJsonStorage to TeaReaderJsonStorage--><g id="link_TeaCreatorJsonStorage_TeaReaderJsonStorage"><path codeLine="54" d="M1339.3068,517.7247 C1319.4068,538.3447 1301.7559,556.6219 1281.7759,577.3319 " fill="none" id="TeaCreatorJsonStorage-TeaReaderJsonStorage" style="stroke:#595959;stroke-width:1.0;"/><polygon fill="#595959" points="1347.64,509.09,1340.5952,510.6296,1339.3068,517.7247,1346.3516,516.1851,1347.64,509.09" style="stroke:#595959;stroke-width:1.0;"/><polygon fill="#595959" points="1277.61,581.65,1286.7375,577.9501,1281.0815,578.0516,1280.9801,572.3957,1277.61,581.65" style="stroke:#595959;stroke-width:1.0;"/><text fill="#000000" font-family="Verdana" font-size="13" lengthAdjust="spacing" textLength="8" x="1333.0933" y="529.1271">1</text><text fill="#000000" font-family="Verdana" font-size="13" lengthAdjust="spacing" textLength="67" x="1207.7903" y="555.5756">teaReader</text><text fill="#000000" font-family="Verdana" font-size="13" lengthAdjust="spacing" textLength="8" x="1237.2903" y="570.7084">1</text></g><!--link TeaCreatorService to TeaCreatorStorage--><g id="link_TeaCreatorService_TeaCreatorStorage"><path codeLine="55" d="M481.9639,514.1802 C499.4739,522.5202 509.48,526.48 529,533 C606.41,558.85 691.8055,576.8335 756.3055,588.4835 " fill="none" id="TeaCreatorService-TeaCreatorStorage" style="stroke:#595959;stroke-width:1.0;"/><polygon fill="#595959" points="471.13,509.02,474.8269,515.2114,481.9639,514.1802,478.267,507.9888,471.13,509.02" style="stroke:#595959;stroke-width:1.0;"/><polygon fill="#595959" points="762.21,589.55,754.0643,584.014,757.2896,588.6613,752.6423,591.8866,762.21,589.55" style="stroke:#595959;stroke-width:1.0;"/><text fill="#000000" font-family="Verdana" font-size="13" lengthAdjust="spacing" textLength="8" x="473.1087" y="529.0382">1</text><text fill="#000000" font-family="Verdana" font-size="13" lengthAdjust="spacing" textLength="119" x="635.4285" y="570.0063">teaCreatorStorage</text><text fill="#000000" font-family="Verdana" font-size="13" lengthAdjust="spacing" textLength="8" x="690.9285" y="585.1392">1</text></g><!--link TeaCreatorSqliteStorage to AbstractTeaSqliteStorage--><g id="link_TeaCreatorSqliteStorage_AbstractTeaSqliteStorage"><path codeLine="56" d="M1645.19,509.09 C1666.89,529.71 1686.7029,548.5395 1708.4929,569.2495 " fill="none" id="TeaCreatorSqliteStorage-to-AbstractTeaSqliteStorage" style="stroke:#000082;stroke-width:1.0;"/><polygon fill="none" points="1721.54,581.65,1712.6263,564.9005,1704.3594,573.5986,1721.54,581.65" style="stroke:#000082;stroke-width:1.0;"/></g><!--link TeaJsonStorage to TeaCreatorJsonStorage--><g id="link_TeaJsonStorage_TeaCreatorJsonStorage"><path codeLine="57" d="M1251.75,382.2 C1277.49,405.19 1313.8647,437.6636 1339.6547,460.6936 " fill="none" id="TeaJsonStorage-to-TeaCreatorJsonStorage" style="stroke:#595959;stroke-width:1.0;stroke-dasharray:7.0,7.0;"/><polygon fill="#595959" points="1344.13,464.69,1340.0812,455.7118,1340.4005,461.3597,1334.7527,461.679,1344.13,464.69" style="stroke:#595959;stroke-width:1.0;"/><text fill="#000000" font-family="Verdana" font-size="13" lengthAdjust="spacing" textLength="41" x="1303" y="425.0669">create</text></g><!--link TeaJsonStorage to TeaReaderJsonStorage--><g id="link_TeaJsonStorage_TeaReaderJsonStorage"><path codeLine="58" d="M1220.8,382.15 C1210.71,415.1 1195.26,480.39 1211,533 C1216.42,551.11 1224.4959,564.1598 1234.7759,577.2598 " fill="none" id="TeaJsonStorage-to-TeaReaderJsonStorage" style="stroke:#595959;stroke-width:1.0;stroke-dasharray:7.0,7.0;"/><polygon fill="#595959" points="1238.48,581.98,1236.0707,572.4304,1235.3933,578.0465,1229.7771,577.3691,1238.48,581.98" style="stroke:#595959;stroke-width:1.0;"/><text fill="#000000" font-family="Verdana" font-size="13" lengthAdjust="spacing" textLength="41" x="1212" y="491.5669">create</text></g><!--link TeaJsonStorage to TeaStorage--><g id="link_TeaJsonStorage_TeaStorage"><path codeLine="59" d="M1199.67,382.2 C1171.47,403.31 1142.5029,425.0073 1111.7729,447.9973 " fill="none" id="TeaJsonStorage-to-TeaStorage" style="stroke:#008200;stroke-width:1.0;stroke-dasharray:7.0,7.0;"/><polygon fill="none" points="1097.36,458.78,1115.3672,452.8016,1108.1787,443.193,1097.36,458.78" style="stroke:#008200;stroke-width:1.0;"/></g><!--link TeaReaderJsonStorage to AbstractTeaJsonStorage--><g id="link_TeaReaderJsonStorage_AbstractTeaJsonStorage"><path codeLine="60" d="M1267.6,626.02 C1277.28,645.19 1283.4168,657.3271 1293.1368,676.6071 " fill="none" id="TeaReaderJsonStorage-to-AbstractTeaJsonStorage" style="stroke:#000082;stroke-width:1.0;"/><polygon fill="none" points="1301.24,692.68,1298.4945,673.906,1287.7792,679.3081,1301.24,692.68" style="stroke:#000082;stroke-width:1.0;"/></g><!--link TeaReaderService to TeaReaderStorage--><g id="link_TeaReaderService_TeaReaderStorage"><path codeLine="61" d="M688.3068,513.3922 C709.4068,521.5822 723.05,526.26 746,533 C832.82,558.51 857.1,554.53 945,576 C950.62,577.37 950.6123,577.3232 956.4323,578.8332 " fill="none" id="TeaReaderService-TeaReaderStorage" style="stroke:#595959;stroke-width:1.0;"/><polygon fill="#595959" points="677.12,509.05,681.266,514.95,688.3068,513.3922,684.1608,507.4921,677.12,509.05" style="stroke:#595959;stroke-width:1.0;"/><polygon fill="#595959" points="962.24,580.34,954.533,574.208,957.4002,579.0843,952.5239,581.9516,962.24,580.34" style="stroke:#595959;stroke-width:1.0;"/><text fill="#000000" font-family="Verdana" font-size="13" lengthAdjust="spacing" textLength="8" x="681.7835" y="529.0763">1</text><text fill="#000000" font-family="Verdana" font-size="13" lengthAdjust="spacing" textLength="117" x="864.6976" y="549.6008">teaReaderStorage</text><text fill="#000000" font-family="Verdana" font-size="13" lengthAdjust="spacing" textLength="8" x="919.1976" y="564.7336">1</text></g><!--link TeaReaderSqliteStorage to AbstractTeaSqliteStorage--><g id="link_TeaReaderSqliteStorage_AbstractTeaSqliteStorage"><path codeLine="62" d="M1840.36,509.09 C1819.2,529.71 1800.0377,548.3739 1778.7977,569.0839 " fill="none" id="TeaReaderSqliteStorage-to-AbstractTeaSqliteStorage" style="stroke:#000082;stroke-width:1.0;"/><polygon fill="none" points="1765.91,581.65,1782.9864,573.3798,1774.609,564.788,1765.91,581.65" style="stroke:#000082;stroke-width:1.0;"/></g><!--link TeaService to TeaCreatorService--><g id="link_TeaService_TeaCreatorService"><path codeLine="63" d="M592.75,382.2 C556.6,405.26 504.2292,438.6644 468.1392,461.6744 " fill="none" id="TeaService-to-TeaCreatorService" style="stroke:#595959;stroke-width:1.0;stroke-dasharray:7.0,7.0;"/><polygon fill="#595959" points="463.08,464.9,472.8192,463.4344,467.296,462.212,468.5184,456.6888,463.08,464.9" style="stroke:#595959;stroke-width:1.0;"/><text fill="#000000" font-family="Verdana" font-size="13" lengthAdjust="spacing" textLength="41" x="546" y="425.0669">create</text></g><!--link TeaService to TeaReaderService--><g id="link_TeaService_TeaReaderService"><path codeLine="64" d="M626,382.2 C626,405.19 626,435.66 626,458.69 " fill="none" id="TeaService-to-TeaReaderService" style="stroke:#595959;stroke-width:1.0;stroke-dasharray:7.0,7.0;"/><polygon fill="#595959" points="626,464.69,630,455.69,626,459.69,622,455.69,626,464.69" style="stroke:#595959;stroke-width:1.0;"/><text fill="#000000" font-family="Verdana" font-size="13" lengthAdjust="spacing" textLength="41" x="627" y="425.0669">create</text></g><!--link TeaService to TeaStorage--><g id="link_TeaService_TeaStorage"><path codeLine="65" d="M691.7432,379.8944 C774.8732,403.7844 915.7035,444.2423 999.6435,468.3723 " fill="none" id="TeaService-TeaStorage" style="stroke:#595959;stroke-width:1.0;"/><polygon fill="#595959" points="680.21,376.58,684.8718,382.0816,691.7432,379.8944,687.0814,374.3928,680.21,376.58" style="stroke:#595959;stroke-width:1.0;"/><polygon fill="#595959" points="1005.41,470.03,997.8654,463.6992,1000.6046,468.6486,995.6552,471.3878,1005.41,470.03" style="stroke:#595959;stroke-width:1.0;"/><text fill="#000000" font-family="Verdana" font-size="13" lengthAdjust="spacing" textLength="8" x="688.032" y="374.8759">1</text><text fill="#000000" font-family="Verdana" font-size="13" lengthAdjust="spacing" textLength="71" x="926.582" y="481.9276">teaStorage</text><text fill="#000000" font-family="Verdana" font-size="13" lengthAdjust="spacing" textLength="8" x="958.082" y="497.0604">1</text></g><!--link TeaSqliteStorage to TeaCreatorSqliteStorage--><g id="link_TeaSqliteStorage_TeaCreatorSqliteStorage"><path codeLine="66" d="M1612.21,382.2 C1614.6,405.19 1617.7707,435.6921 1620.1607,458.7221 " fill="none" id="TeaSqliteStorage-to-TeaCreatorSqliteStorage" style="stroke:#595959;stroke-width:1.0;stroke-dasharray:7.0,7.0;"/><polygon fill="#595959" points="1620.78,464.69,1623.8296,455.3252,1620.2639,459.7167,1615.8724,456.151,1620.78,464.69" style="stroke:#595959;stroke-width:1.0;"/><text fill="#000000" font-family="Verdana" font-size="13" lengthAdjust="spacing" textLength="41" x="1617" y="425.0669">create</text></g><!--link TeaSqliteStorage to TeaReaderSqliteStorage--><g id="link_TeaSqliteStorage_TeaReaderSqliteStorage"><path codeLine="67" d="M1652.46,382.06 C1698.89,405.09 1767.4847,439.1243 1813.9847,462.1843 " fill="none" id="TeaSqliteStorage-to-TeaReaderSqliteStorage" style="stroke:#595959;stroke-width:1.0;stroke-dasharray:7.0,7.0;"/><polygon fill="#595959" points="1819.36,464.85,1813.0742,457.2679,1814.8806,462.6286,1809.5199,464.435,1819.36,464.85" style="stroke:#595959;stroke-width:1.0;"/><text fill="#000000" font-family="Verdana" font-size="13" lengthAdjust="spacing" textLength="41" x="1744" y="425.0669">create</text></g><!--link TeaSqliteStorage to TeaStorage--><g id="link_TeaSqliteStorage_TeaStorage"><path codeLine="68" d="M1578.65,382.09 C1553.43,397.9 1516.45,418.55 1481,429 C1335.92,471.77 1290.09,428.21 1142,459 C1133.73,460.72 1142.3501,457.8019 1133.9801,460.3319 " fill="none" id="TeaSqliteStorage-to-TeaStorage" style="stroke:#008200;stroke-width:1.0;stroke-dasharray:7.0,7.0;"/><polygon fill="none" points="1116.75,465.54,1135.7161,466.0752,1132.244,454.5885,1116.75,465.54" style="stroke:#008200;stroke-width:1.0;"/></g><!--link TeaStorage to TeaCreatorStorage--><g id="link_TeaStorage_TeaCreatorStorage"><path codeLine="69" d="M1010.08,515.11 C975.66,533.44 946.2667,549.0776 911.8367,567.4176 " fill="none" id="TeaStorage-to-TeaCreatorStorage" style="stroke:#008200;stroke-width:1.0;"/><polygon fill="none" points="895.95,575.88,914.6575,572.7131,909.0159,562.122,895.95,575.88" style="stroke:#008200;stroke-width:1.0;"/></g><!--link TeaStorage to TeaReaderStorage--><g id="link_TeaStorage_TeaReaderStorage"><path codeLine="70" d="M1056.97,515.25 C1054.26,533.59 1053.3287,539.843 1050.6287,558.133 " fill="none" id="TeaStorage-to-TeaReaderStorage" style="stroke:#008200;stroke-width:1.0;"/><polygon fill="none" points="1048,575.94,1056.5644,559.0092,1044.693,557.2567,1048,575.94" style="stroke:#008200;stroke-width:1.0;"/></g><!--link TeaStorageFactory to TeaJsonStorage--><g id="link_TeaStorageFactory_TeaJsonStorage"><path codeLine="71" d="M1228,238.26 C1228,265.03 1228,304.76 1228,331.6 " fill="none" id="TeaStorageFactory-to-TeaJsonStorage" style="stroke:#595959;stroke-width:1.0;stroke-dasharray:7.0,7.0;"/><polygon fill="#595959" points="1228,337.6,1232,328.6,1228,332.6,1224,328.6,1228,337.6" style="stroke:#595959;stroke-width:1.0;"/><text fill="#000000" font-family="Verdana" font-size="13" lengthAdjust="spacing" textLength="41" x="1229" y="283.0669">create</text></g><!--link TeaStorageFactory to TeaSqliteStorage--><g id="link_TeaStorageFactory_TeaSqliteStorage"><path codeLine="72" d="M1307.77,238.02 C1358.15,252.17 1424.22,272.34 1481,295 C1512.23,307.47 1540.9461,321.6948 1566.2061,335.0548 " fill="none" id="TeaStorageFactory-to-TeaSqliteStorage" style="stroke:#595959;stroke-width:1.0;stroke-dasharray:7.0,7.0;"/><polygon fill="#595959" points="1571.51,337.86,1565.4244,330.1163,1567.0901,335.5223,1561.6841,337.1881,1571.51,337.86" style="stroke:#595959;stroke-width:1.0;"/><text fill="#000000" font-family="Verdana" font-size="13" lengthAdjust="spacing" textLength="41" x="1455" y="283.0669">create</text></g><!--link TeaStorageFactory to TeaStorage--><g id="link_TeaStorageFactory_TeaStorage"><path codeLine="73" d="M1189.2623,245.6969 C1171.0523,260.0769 1157.64,272.98 1142,295 C1104.66,347.56 1081.6442,414.2471 1070.1442,453.0671 " fill="none" id="TeaStorageFactory-TeaStorage" style="stroke:#595959;stroke-width:1.0;"/><polygon fill="#595959" points="1198.68,238.26,1191.4922,238.8392,1189.2623,245.6969,1196.4501,245.1177,1198.68,238.26" style="stroke:#595959;stroke-width:1.0;"/><polygon fill="#595959" points="1068.44,458.82,1074.8316,451.3268,1069.8602,454.0259,1067.1611,449.0545,1068.44,458.82" style="stroke:#595959;stroke-width:1.0;"/><text fill="#000000" font-family="Verdana" font-size="13" lengthAdjust="spacing" textLength="8" x="1182.1418" y="257.9699">1</text><text fill="#000000" font-family="Verdana" font-size="13" lengthAdjust="spacing" textLength="139" x="917.9977" y="432.9256">teaStoragePredicates</text><text fill="#000000" font-family="Verdana" font-size="13" lengthAdjust="spacing" textLength="7" x="983.9977" y="448.0584">*</text></g><!--link TeaWebServer to AssetHandler--><g id="link_TeaWebServer_AssetHandler"><path codeLine="74" d="M502.72,90.23 C514.1,117.91 531.5992,160.5004 542.9792,188.1904 " fill="none" id="TeaWebServer-to-AssetHandler" style="stroke:#595959;stroke-width:1.0;stroke-dasharray:7.0,7.0;"/><polygon fill="#595959" points="545.26,193.74,545.5386,183.8951,543.3594,189.1153,538.1391,186.9361,545.26,193.74" style="stroke:#595959;stroke-width:1.0;"/><text fill="#000000" font-family="Verdana" font-size="13" lengthAdjust="spacing" textLength="41" x="525" y="139.0669">create</text></g><!--link TeaWebServer to MainPage--><g id="link_TeaWebServer_MainPage"><path codeLine="75" d="M481.64,90.23 C465.52,117.91 440.5201,160.8655 424.3901,188.5555 " fill="none" id="TeaWebServer-to-MainPage" style="stroke:#595959;stroke-width:1.0;stroke-dasharray:7.0,7.0;"/><polygon fill="#595959" points="421.37,193.74,429.3565,187.9766,423.8867,189.4196,422.4438,183.9499,421.37,193.74" style="stroke:#595959;stroke-width:1.0;"/><text fill="#000000" font-family="Verdana" font-size="13" lengthAdjust="spacing" textLength="41" x="460" y="139.0669">create</text></g><!--link TeaWebServer to TeaService--><g id="link_TeaWebServer_TeaService"><path codeLine="76" d="M568.9816,95.0718 C597.2316,107.9318 616.74,122.53 633,151 C667.4,211.24 648.0916,292.4064 635.3716,332.0864 " fill="none" id="TeaWebServer-TeaService" style="stroke:#595959;stroke-width:1.0;"/><polygon fill="#595959" points="558.06,90.1,561.8636,96.2264,568.9816,95.0718,565.1781,88.9453,558.06,90.1" style="stroke:#595959;stroke-width:1.0;"/><polygon fill="#595959" points="633.54,337.8,640.0964,330.4506,635.0663,333.0387,632.4783,328.0085,633.54,337.8" style="stroke:#595959;stroke-width:1.0;"/><text fill="#000000" font-family="Verdana" font-size="13" lengthAdjust="spacing" textLength="8" x="566.2011" y="110.1397">1</text><text fill="#000000" font-family="Verdana" font-size="13" lengthAdjust="spacing" textLength="69" x="642.7362" y="311.7584">teaService</text><text fill="#000000" font-family="Verdana" font-size="13" lengthAdjust="spacing" textLength="8" x="673.2362" y="326.8913">1</text></g><!--link TeaWebServer to WebServer--><g id="link_TeaWebServer_WebServer"><path codeLine="77" d="M448.75,90.05 C417.86,105.26 376.61,127.23 343,151 C324.84,163.84 319.1422,168.2188 305.5422,181.4488 " fill="none" id="TeaWebServer-to-WebServer" style="stroke:#000082;stroke-width:1.0;"/><polygon fill="none" points="292.64,194,309.726,185.7495,301.3585,177.1481,292.64,194" style="stroke:#000082;stroke-width:1.0;"/></g><!--SRC=[hLRDIWCn4BxdAU9w4CH25GILKX11H1342XwiXNHtrDMwMvEWYFI9V0HlFfdPDlkJpUnkKfeUMZ8pNxwP-JBfbdo6Dw3p6OiJ8jCvbIcTfbAcRpIAEOGoJXD2vYnyPKz0XKnvzlrDg5fn8e4_iX3eBR2HDWq6bVtXq7Oyuy2KhxF_3R086jsN_k6C2L4XSSv2zUEBhAmv-HUH9ffv6NGw5P8hTnLygUmQeEPKi6XrqOcr-jID2vEYU9_54jf8ZfOUNHmwl7H9svriyu8iIYbymbJpN4LSAG5TvvwQjX0WBrWIpO2RVRg3wGZuXx5TxbLE4Med3i4ugPBcoagmv31JlgaEA4cJmgp4fHIVyYZJbLexcPcYgtU_VNYSVVOY9fuXUkWDQUM4clS93Vv-memp_Fq6Q-7gDgmVgk_4vYWL_TfaggK8SZrPSS5-G7VBuENaoc83MPH_d2YVIh_HovcJwAjrT93ZJ6ZJI6W4QIEq4cFEnnuYbfPTiZGdQ0vkxfA6OT2TitdlpIAuw08lKaqN_h1MxQWlR9Polr_0JeoBrNY2fqICwUEaMUDzCvLYuzPQwTrBV3vrzR8MPHVT4nOlaYjiwm0morZDl5uwjypDA8IY7opUHX_OBXKZsZSZIw6WGyCltj8f_jeqrWE_hKWz_63nyhd2EWZicaCKXmf8Z9FTkjJmbn4dM_sFrFQGUi8slfwkiEkziiqKhIbLkFu3]--></g></svg>
